#!OML:ASF X:\für Bonn\!DataBase\2005_08_10_Bjorn_Final\c3d\bjorn.ASF
:FULLY-SPECIFIED
:DEGREES
138
root -20.0236 19.3482 -0.653068 1441.94 -72.7904 -2.33203
lowerback -8.18827 6.37779 -3.27525
upperback 5.91292 9.62262 -8.23068
thorax 12.0261 4.67244 -5.40474
lowerneck -0.75211 -12.1018 3.67276
upperneck 6.91532 -16.8151 5.91622
head 2.57873 -8.18318 0.845822
rclavicle 1.31198e-013 -6.99722e-014
rhumerus 29.0423 3.39607 -30.0975
rradius 44.9639
rwrist -31.4329
rhand 3.72027 10.4269
rfingers 7.12502
rthumb 29.1486 -17.3113
lclavicle 1.31198e-013 -6.99722e-014
lhumerus -30.4969 -2.12565 78.3602
lradius 25.8143
lwrist -12.9493
lhand -23.4371 -5.97179
lfingers 7.12502
lthumb 3.02094 23.9866
rfemur -5.75306 3.60065 14.6005
rtibia 32.4076
rfoot -13.7805 23.267
rtoes -9.67083
lfemur -11.2304 3.82315 -17.1469
ltibia 28.5587
lfoot -5.63439 -21.9638
ltoes 5.19376
139
root -20.0223 19.3467 -0.680052 1441.74 -72.524 -2.08309
lowerback -8.25176 6.37788 -3.26991
upperback 5.88811 9.62732 -8.22194
thorax 12.0355 4.67496 -5.39091
lowerneck -0.682932 -12.1406 3.79915
upperneck 6.93538 -16.8623 5.85427
head 2.55645 -8.20632 0.812658
rclavicle 5.00937e-014 8.26944e-014
rhumerus 29.0258 3.69949 -29.7195
rradius 44.843
rwrist -31.5315
rhand 3.13744 10.723
rfingers 7.12502
rthumb 28.5919 -17.1102
lclavicle 5.00937e-014 8.26944e-014
lhumerus -30.5309 -2.5156 78.3166
lradius 25.6363
lwrist -12.9677
lhand -23.3327 -5.82432
lfingers 7.12502
lthumb 3.12177 24.1326
rfemur -5.60081 3.96143 14.561
rtibia 32.2928
rfoot -13.3771 23.9168
rtoes -8.93163
lfemur -11.355 3.75767 -17.1345
ltibia 28.574
lfoot -5.58051 -22.2145
ltoes 5.11155
140
root -20.0204 19.3432 -0.708517 1441.49 -72.2585 -1.77705
lowerback -8.31625 6.38894 -3.27486
upperback 5.8718 9.65004 -8.22946
thorax 12.0589 4.68579 -5.38593
lowerneck -0.700399 -12.1838 3.94719
upperneck 7.04401 -16.9289 5.78688
head 2.57708 -8.23349 0.765092
rclavicle -2.54444e-014 -8.26944e-014
rhumerus 29.0026 3.99053 -29.3248
rradius 44.7159
rwrist -31.6257
rhand 2.47642 11.0629
rfingers 7.12502
rthumb 27.9601 -16.875
lclavicle -2.54444e-014 -8.26944e-014
lhumerus -30.5358 -2.89468 78.2543
lradius 25.488
lwrist -13.0297
lhand -23.2359 -5.63634
lfingers 7.12502
lthumb 3.21526 24.3192
rfemur -5.45329 4.33628 14.5024
rtibia 32.1601
rfoot -12.8384 24.6385
rtoes -7.58758
lfemur -11.4947 3.69533 -17.1423
ltibia 28.6052
lfoot -5.48961 -22.4379
ltoes 5.04889
141
root -20.0163 19.3391 -0.736224 1441.23 -71.9721 -1.47186
lowerback -8.3749 6.38296 -3.26951
upperback 5.86958 9.64812 -8.21992
thorax 12.0908 4.68493 -5.37287
lowerneck -0.717874 -12.22 4.04995
upperneck 7.11803 -16.9833 5.73746
head 2.59167 -8.25619 0.730813
rclavicle -8.74653e-015 7.63333e-014
rhumerus 29.0514 4.26259 -28.8994
rradius 44.5697
rwrist -31.7622
rhand 1.8769 11.437
rfingers 7.12502
rthumb 27.3869 -16.5928
lclavicle -8.74653e-015 7.63333e-014
lhumerus -30.5272 -3.05045 78.1793
lradius 25.341
lwrist -13.2321
lhand -23.07 -5.50094
lfingers 7.12502
lthumb 3.37549 24.4521
rfemur -5.28656 4.69592 14.4389
rtibia 32.0023
rfoot -12.2648 25.3967
rtoes -6.14966
lfemur -11.6358 3.54475 -17.1552
ltibia 28.65
lfoot -5.3703 -22.6057
ltoes 5.22427
142
root -20.0102 19.3343 -0.766816 1440.93 -71.6673 -1.11149
lowerback -8.44109 6.37492 -3.28946
upperback 5.87691 9.64841 -8.217
thorax 12.1356 4.68294 -5.35221
lowerneck -0.737295 -12.2527 4.18778
upperneck 7.16567 -17.03 5.67036
head 2.59248 -8.27568 0.68759
rclavicle 8.74653e-014 -3.49861e-014
rhumerus 29.0953 4.46668 -28.5092
rradius 44.4503
rwrist -31.8634
rhand 1.30908 11.8148
rfingers 7.12502
rthumb 26.8436 -16.2997
lclavicle 8.74653e-014 -3.49861e-014
lhumerus -30.4808 -3.26674 78.1165
lradius 25.1867
lwrist -13.4262
lhand -22.9627 -5.39247
lfingers 7.12502
lthumb 3.47913 24.5589
rfemur -5.14656 4.9969 14.3538
rtibia 31.8263
rfoot -11.5718 26.2024
rtoes -4.65384
lfemur -11.8094 3.4042 -17.188
ltibia 28.7044
lfoot -5.28846 -22.8101
ltoes 5.27574
143
root -20.0035 19.3302 -0.797299 1440.64 -71.3842 -0.767429
lowerback -8.49915 6.36383 -3.30921
upperback 5.88684 9.64238 -8.19274
thorax 12.1732 4.67699 -5.3098
lowerneck -0.799952 -12.2783 4.23774
upperneck 7.28421 -17.076 5.62594
head 2.63517 -8.2922 0.657382
rclavicle -5.40694e-014 -2.8625e-014
rhumerus 29.175 4.71025 -28.0504
rradius 44.3856
rwrist -31.9586
rhand 0.66136 12.0894
rfingers 7.12502
rthumb 26.2237 -16.1188
lclavicle -5.40694e-014 -2.8625e-014
lhumerus -30.4529 -3.45356 78.1023
lradius 25.0687
lwrist -13.4961
lhand -22.8143 -5.25655
lfingers 7.12502
lthumb 3.62242 24.6924
rfemur -5.00047 5.32702 14.2656
rtibia 31.6358
rfoot -10.8895 26.9947
rtoes -3.37183
lfemur -11.9603 3.18345 -17.2223
ltibia 28.7484
lfoot -5.18929 -22.9039
ltoes 5.33158
144
root -19.9956 19.328 -0.828526 1440.42 -71.0722 -0.491591
lowerback -8.56538 6.34325 -3.29718
upperback 5.88373 9.61923 -8.16357
thorax 12.2034 4.66563 -5.28203
lowerneck -0.749578 -12.3059 4.28839
upperneck 7.33858 -17.1089 5.56023
head 2.63376 -8.30769 0.631705
rclavicle 4.21423e-014 -4.13472e-014
rhumerus 29.2249 4.90049 -27.6834
rradius 44.3742
rwrist -31.8797
rhand 0.148665 12.2776
rfingers 7.12502
rthumb 25.7328 -16.0026
lclavicle 4.21423e-014 -4.13472e-014
lhumerus -30.4738 -3.61604 78.0823
lradius 24.995
lwrist -13.622
lhand -22.6677 -5.19268
lfingers 7.12502
lthumb 3.76404 24.7538
rfemur -4.88002 5.62385 14.1982
rtibia 31.4345
rfoot -10.1757 27.8049
rtoes -2.21514
lfemur -12.1291 2.96926 -17.2325
ltibia 28.7784
lfoot -5.06274 -23.024
ltoes 5.43885
145
root -19.986 19.3255 -0.860761 1440.19 -70.758 -0.228097
lowerback -8.5983 6.31613 -3.28548
upperback 5.90115 9.58464 -8.11955
thorax 12.2328 4.64826 -5.24285
lowerneck -0.760445 -12.3212 4.28736
upperneck 7.40885 -17.1313 5.51806
head 2.65547 -8.3164 0.615329
rclavicle 1.82882e-014 3.49861e-014
rhumerus 29.3093 5.02512 -27.3342
rradius 44.4094
rwrist -31.7144
rhand -0.213469 12.3436
rfingers 7.12502
rthumb 25.3859 -15.9864
lclavicle 1.82882e-014 3.49861e-014
lhumerus -30.4446 -3.75701 78.0902
lradius 24.9055
lwrist -13.6657
lhand -22.5462 -5.1349
lfingers 7.12502
lthumb 3.8813 24.8095
rfemur -4.75881 5.93048 14.1277
rtibia 31.221
rfoot -9.37205 28.615
rtoes -1.02889
lfemur -12.2717 2.76629 -17.2393
ltibia 28.7818
lfoot -4.9091 -23.1784
ltoes 5.64423
146
root -19.9756 19.3237 -0.893954 1439.94 -70.4597 0.0877303
lowerback -8.64945 6.30022 -3.26337
upperback 5.89554 9.5667 -8.11698
thorax 12.2592 4.64178 -5.25081
lowerneck -0.758368 -12.335 4.3573
upperneck 7.50921 -17.1548 5.46091
head 2.67722 -8.32379 0.584491
rclavicle 5.96354e-014 -6.99722e-014
rhumerus 29.3238 5.0952 -27.0857
rradius 44.5153
rwrist -31.4577
rhand -0.521772 12.4111
rfingers 7.12502
rthumb 25.0905 -15.9605
lclavicle 5.96354e-014 -6.99722e-014
lhumerus -30.4188 -3.78947 78.0109
lradius 24.8179
lwrist -13.8566
lhand -22.4201 -5.14323
lfingers 7.12502
lthumb 4.00305 24.7989
rfemur -4.68321 6.23555 14.0255
rtibia 30.9952
rfoot -8.4085 29.4523
rtoes 0.811391
lfemur -12.4277 2.53212 -17.2708
ltibia 28.7678
lfoot -4.70371 -23.2461
ltoes 6.01156
147
root -19.9629 19.3227 -0.927957 1439.67 -70.1219 0.397837
lowerback -8.65789 6.27091 -3.21998
upperback 5.90591 9.52555 -8.11607
thorax 12.2799 4.62671 -5.28095
lowerneck -0.768641 -12.3558 4.40809
upperneck 7.58935 -17.1864 5.40873
head 2.6966 -8.33597 0.557459
rclavicle 0 0
rhumerus 29.3115 5.17736 -26.7882
rradius 44.7416
rwrist -31.2634
rhand -0.805699 12.393
rfingers 7.12502
rthumb 24.8184 -16.0164
lclavicle 0 0
lhumerus -30.404 -3.86439 77.9408
lradius 24.7894
lwrist -13.9217
lhand -22.2557 -5.13574
lfingers 7.12502
lthumb 4.16187 24.8034
rfemur -4.58727 6.54979 13.934
rtibia 30.7628
rfoot -7.60171 30.1485
rtoes 2.12042
lfemur -12.5599 2.28534 -17.3018
ltibia 28.7307
lfoot -4.5232 -23.3715
ltoes 6.23393
148
root -19.9488 19.3218 -0.96267 1439.49 -69.7934 0.634515
lowerback -8.67365 6.24118 -3.1626
upperback 5.90679 9.4807 -8.09796
thorax 12.2923 4.61033 -5.29965
lowerneck -0.765682 -12.3649 4.42826
upperneck 7.69037 -17.2021 5.35571
head 2.72328 -8.34036 0.534867
rclavicle -5.40694e-014 1.59028e-014
rhumerus 29.2789 5.27343 -26.4433
rradius 45.0262
rwrist -31.1166
rhand -1.22986 12.4429
rfingers 7.12502
rthumb 24.4119 -16.0219
lclavicle -5.40694e-014 1.59028e-014
lhumerus -30.3875 -3.87462 77.8776
lradius 24.7663
lwrist -14.0714
lhand -22.087 -5.19358
lfingers 7.12502
lthumb 4.32472 24.7423
rfemur -4.51685 6.82586 13.8586
rtibia 30.5219
rfoot -6.82059 30.8196
rtoes 3.29017
lfemur -12.7075 2.01603 -17.3106
ltibia 28.6799
lfoot -4.32944 -23.453
ltoes 6.63519
